<?xml version="1.0" standalone="no"?>
<!DOCTYPE svg PUBLIC "-//W3C//DTD SVG 20010904//EN"
 "http://www.w3.org/TR/2001/REC-SVG-20010904/DTD/svg10.dtd">
<svg version="1.0" xmlns="http://www.w3.org/2000/svg"
 width="1595.000000pt" height="1595.000000pt" viewBox="0 0 1595.000000 1595.000000"
 preserveAspectRatio="xMidYMid meet">
<metadata>
Created by potrace 1.14, written by Peter Selinger 2001-2017
</metadata>
<g transform="translate(0.000000,1595.000000) scale(0.100000,-0.100000)"
fill="#000000" stroke="none">
<path d="M7646 15671 c-4 -6 -12 -9 -17 -6 -5 4 -9 1 -9 -6 0 -8 -4 -8 -15 1
-11 9 -15 9 -15 1 0 -7 -4 -10 -9 -7 -17 11 -132 9 -143 -2 -8 -8 -17 -8 -30
-1 -11 6 -18 6 -18 0 0 -6 -11 -6 -30 -1 -19 5 -30 5 -30 -1 0 -6 -4 -8 -9 -4
-5 3 -12 1 -15 -4 -4 -6 -18 -6 -38 0 -23 6 -40 5 -60 -5 -17 -9 -28 -10 -28
-4 0 7 -5 6 -14 -1 -11 -9 -15 -9 -19 1 -4 11 -6 11 -6 0 -1 -9 -6 -10 -20 -3
-14 8 -22 7 -29 -2 -6 -7 -24 -12 -39 -11 -15 1 -36 -3 -45 -7 -10 -5 -18 -5
-20 1 -2 6 -14 4 -29 -4 -18 -9 -32 -10 -43 -4 -12 7 -24 5 -42 -6 -13 -9 -24
-12 -24 -8 0 12 -64 5 -68 -7 -1 -4 -14 -6 -27 -3 -14 2 -25 0 -25 -5 0 -13
-30 -12 -30 1 0 6 -7 3 -14 -7 -11 -14 -15 -15 -19 -5 -4 9 -6 10 -6 1 -1 -7
-7 -10 -15 -7 -8 3 -24 0 -36 -6 -15 -8 -20 -8 -16 -1 5 8 -1 8 -21 0 -15 -6
-43 -11 -63 -13 -19 -1 -45 -8 -57 -15 -18 -9 -23 -9 -23 1 0 9 -3 10 -8 2 -4
-6 -15 -10 -24 -8 -10 1 -18 -1 -18 -5 0 -4 -17 -8 -37 -9 -20 -2 -42 -6 -48
-11 -5 -4 -23 -8 -39 -9 -16 -1 -36 -8 -44 -15 -13 -10 -14 -9 -8 2 5 8 -3 6
-20 -5 -15 -11 -25 -14 -21 -7 5 9 -3 8 -28 -3 -20 -8 -40 -12 -45 -9 -6 4
-10 2 -10 -4 0 -5 -8 -8 -17 -6 -10 1 -22 -1 -28 -5 -5 -4 -18 -8 -27 -9 -10
-1 -27 -2 -38 -3 -11 -1 -20 -6 -20 -10 0 -4 -8 -8 -18 -8 -10 0 -27 -6 -37
-14 -13 -9 -25 -11 -36 -5 -12 6 -19 4 -24 -8 -5 -15 -7 -15 -15 -3 -8 12 -10
12 -15 -2 -4 -9 -13 -14 -21 -11 -8 3 -21 0 -29 -7 -8 -6 -19 -9 -25 -5 -5 3
-10 2 -10 -4 0 -6 -6 -8 -14 -5 -8 3 -17 1 -21 -5 -3 -6 -17 -11 -31 -11 -13
0 -24 -4 -24 -8 0 -4 -11 -9 -26 -10 -14 -1 -34 -7 -45 -12 -11 -6 -24 -8 -29
-5 -6 3 -10 1 -10 -5 0 -6 -4 -9 -9 -5 -5 3 -12 1 -16 -5 -4 -6 -11 -8 -16 -5
-5 4 -9 1 -9 -5 0 -7 -7 -10 -15 -6 -8 3 -15 1 -15 -5 0 -6 -8 -9 -17 -8 -10
2 -28 -2 -39 -9 -12 -6 -24 -8 -28 -5 -3 3 -6 1 -6 -6 0 -8 -7 -11 -15 -7 -8
3 -15 0 -15 -6 0 -6 -3 -8 -7 -5 -3 4 -12 -1 -20 -11 -8 -9 -11 -11 -8 -3 5 8
-3 6 -21 -5 -15 -11 -25 -13 -21 -7 6 9 3 11 -7 7 -9 -3 -16 -11 -16 -16 0 -5
-6 -8 -12 -6 -7 3 -19 -1 -26 -9 -8 -7 -18 -11 -23 -8 -5 4 -9 1 -9 -5 0 -6
-5 -8 -10 -5 -6 4 -18 1 -26 -6 -8 -6 -17 -9 -20 -6 -4 3 -13 -1 -21 -9 -8 -8
-19 -12 -24 -9 -5 4 -9 1 -9 -5 0 -6 -5 -8 -10 -5 -6 3 -13 -1 -16 -10 -6 -13
-8 -14 -15 -3 -7 10 -9 10 -9 1 0 -7 -4 -13 -9 -13 -5 0 -31 -10 -58 -22 -26
-12 -51 -21 -55 -20 -5 1 -8 -2 -8 -8 0 -5 -5 -10 -11 -10 -5 0 -7 6 -4 13 4
6 1 5 -7 -4 -13 -15 -51 -33 -74 -34 -6 0 -19 -8 -28 -18 -10 -9 -22 -15 -27
-12 -5 4 -9 1 -9 -4 0 -6 -9 -11 -20 -11 -11 0 -20 -4 -20 -9 0 -8 -37 -24
-52 -22 -5 1 -8 -4 -8 -10 0 -5 -4 -7 -10 -4 -5 3 -10 1 -10 -5 0 -6 -4 -8
-10 -5 -5 3 -10 2 -10 -4 0 -6 -7 -8 -15 -5 -8 4 -15 1 -15 -5 0 -6 -9 -11
-20 -11 -11 0 -20 -4 -20 -10 0 -5 -7 -10 -16 -10 -8 0 -13 -4 -10 -8 2 -4 -4
-9 -15 -10 -42 -4 -48 -6 -43 -14 3 -4 -1 -8 -9 -8 -7 0 -22 -8 -33 -18 -11
-10 -26 -16 -33 -14 -9 3 -11 0 -6 -8 5 -8 3 -11 -6 -8 -8 3 -20 -2 -27 -11
-11 -13 -12 -13 -6 -1 6 11 2 10 -13 -2 -11 -10 -25 -18 -31 -18 -7 0 -12 -5
-12 -11 0 -5 -4 -7 -10 -4 -5 3 -10 1 -10 -4 0 -6 -6 -11 -14 -11 -7 0 -19 -7
-26 -15 -7 -8 -16 -12 -21 -9 -5 3 -9 0 -9 -6 0 -6 -5 -8 -10 -5 -6 3 -13 -1
-16 -9 -3 -9 -10 -13 -15 -10 -5 3 -9 0 -9 -5 0 -6 -5 -11 -11 -11 -6 0 -24
-9 -40 -21 -16 -11 -29 -17 -29 -13 0 4 -8 0 -18 -9 -10 -10 -22 -14 -26 -10
-4 5 -6 1 -4 -7 2 -8 -3 -14 -9 -13 -7 2 -13 -2 -13 -7 0 -6 -6 -10 -14 -10
-7 0 -19 -7 -26 -15 -7 -9 -15 -13 -17 -11 -3 2 -13 -4 -24 -15 -11 -11 -24
-17 -29 -14 -6 4 -10 -1 -10 -9 0 -9 -3 -15 -7 -15 -21 3 -33 -2 -27 -13 4 -6
3 -8 -4 -4 -6 3 -18 -1 -26 -10 -9 -8 -16 -12 -16 -7 0 4 -5 0 -11 -10 -6 -9
-14 -15 -20 -12 -5 4 -9 1 -9 -4 0 -6 -7 -11 -15 -11 -9 0 -18 -7 -21 -15 -4
-8 -12 -15 -19 -15 -7 0 -16 -7 -19 -16 -3 -8 -10 -12 -16 -9 -6 3 -13 -1 -16
-9 -3 -9 -10 -14 -14 -11 -4 3 -10 -2 -14 -10 -3 -8 -12 -15 -20 -15 -7 0 -17
-7 -20 -16 -4 -9 -9 -14 -13 -11 -3 4 -19 -5 -35 -18 -16 -14 -34 -25 -39 -25
-6 0 -7 -4 -4 -10 6 -9 -8 -14 -27 -11 -5 0 -8 -6 -8 -15 0 -8 -5 -12 -10 -9
-6 3 -13 0 -16 -8 -3 -9 -17 -18 -30 -21 -14 -4 -22 -11 -19 -16 3 -6 1 -10
-5 -10 -6 0 -22 -11 -35 -25 -14 -13 -25 -20 -25 -15 0 5 -18 -8 -39 -29 -22
-22 -42 -36 -45 -33 -3 3 -6 0 -6 -7 0 -7 -4 -10 -9 -6 -5 3 -13 -4 -16 -16
-4 -11 -9 -18 -12 -16 -5 6 -43 -24 -80 -62 -13 -13 -23 -21 -23 -17 0 4 -10
-2 -22 -14 -12 -11 -25 -20 -30 -20 -4 0 -7 -6 -5 -12 1 -7 -4 -12 -10 -11 -7
2 -13 -2 -13 -7 0 -6 -11 -15 -25 -22 -13 -6 -23 -14 -21 -17 1 -3 -5 -14 -16
-23 -10 -10 -18 -15 -18 -12 0 4 -19 -13 -42 -36 -24 -24 -42 -47 -41 -51 2
-5 -4 -6 -12 -3 -9 4 -15 0 -15 -10 0 -8 -6 -13 -12 -11 -7 3 -24 -11 -38 -30
-14 -19 -31 -35 -38 -35 -7 0 -11 -4 -8 -8 3 -5 -6 -15 -19 -22 -13 -7 -22
-17 -19 -22 3 -4 0 -8 -6 -8 -6 0 -8 -4 -5 -10 4 -6 -1 -7 -11 -3 -10 3 -15 2
-12 -3 2 -5 -6 -19 -19 -31 -13 -12 -23 -19 -23 -16 0 4 -11 -7 -23 -25 -13
-17 -28 -28 -32 -24 -5 4 -5 -1 -2 -11 4 -11 3 -16 -3 -12 -6 3 -10 1 -10 -6
0 -7 -3 -9 -7 -6 -3 4 -16 -7 -28 -23 -12 -16 -24 -28 -26 -26 -2 2 -13 -6
-24 -17 -11 -11 -13 -16 -5 -12 8 4 4 -3 -10 -16 -13 -13 -28 -23 -32 -22 -5
2 -8 -3 -8 -11 0 -7 -7 -19 -15 -26 -8 -7 -12 -16 -9 -21 3 -5 -3 -6 -12 -2
-10 3 -15 2 -12 -3 6 -10 -10 -29 -27 -32 -5 -1 -10 -7 -10 -13 0 -6 -9 -17
-19 -25 -11 -8 -16 -14 -10 -14 5 0 1 -5 -9 -11 -9 -6 -14 -15 -11 -21 5 -7 2
-8 -5 -4 -8 5 -14 0 -18 -13 -3 -11 -9 -19 -13 -16 -5 3 -11 -4 -15 -15 -4
-11 -11 -18 -16 -15 -5 4 -9 -1 -9 -9 0 -9 -5 -16 -12 -16 -6 0 -8 -3 -5 -6 3
-4 -5 -15 -18 -26 -14 -11 -25 -24 -25 -29 0 -14 -38 -48 -46 -41 -4 4 -4 2
-1 -4 3 -6 -8 -25 -25 -42 -16 -18 -27 -32 -24 -32 4 0 -3 -11 -16 -24 -48
-49 -78 -89 -78 -101 0 -8 -5 -17 -12 -21 -7 -4 -8 -3 -4 4 4 7 4 12 1 12 -3
0 -11 -13 -16 -30 -6 -16 -14 -28 -19 -25 -4 3 -13 -9 -20 -25 -7 -17 -17 -30
-22 -30 -5 0 -7 -4 -4 -9 3 -5 -1 -12 -10 -15 -9 -4 -14 -9 -10 -13 3 -3 -3
-13 -14 -20 -11 -8 -18 -18 -16 -22 3 -4 -4 -13 -14 -21 -10 -8 -17 -17 -14
-22 3 -4 -2 -11 -10 -14 -9 -3 -16 -12 -16 -19 0 -7 -4 -15 -9 -17 -5 -1 -11
-10 -13 -18 -2 -8 -11 -22 -20 -31 -10 -9 -18 -20 -18 -23 0 -4 -7 -14 -16
-23 -8 -9 -13 -22 -10 -30 3 -8 2 -12 -3 -9 -9 6 -47 -44 -43 -56 1 -5 -2 -8
-8 -8 -5 0 -10 -6 -10 -14 0 -8 -7 -17 -16 -20 -8 -3 -13 -10 -10 -14 3 -5 -4
-19 -15 -30 -11 -12 -16 -22 -12 -22 4 0 1 -5 -7 -10 -8 -5 -15 -13 -16 -17 0
-4 -10 -24 -22 -43 -11 -19 -22 -39 -22 -45 -1 -5 -8 -14 -16 -18 -8 -5 -12
-12 -9 -18 4 -5 1 -9 -4 -9 -6 0 -11 -7 -11 -15 0 -8 -4 -15 -10 -15 -5 0 -10
-7 -10 -15 0 -8 -5 -15 -11 -15 -5 0 -7 -4 -4 -10 3 -5 1 -10 -5 -10 -6 0 -9
-4 -6 -8 3 -5 -3 -18 -14 -29 -10 -12 -16 -24 -13 -27 4 -3 1 -6 -6 -6 -7 0
-9 -4 -6 -10 3 -5 1 -10 -5 -10 -6 0 -8 -4 -5 -10 3 -5 1 -10 -5 -10 -6 0 -9
-4 -6 -9 3 -5 -1 -12 -10 -15 -8 -3 -12 -10 -9 -16 3 -5 1 -10 -6 -10 -7 0 -9
-3 -6 -7 4 -3 0 -15 -10 -25 -9 -10 -12 -18 -8 -18 4 0 0 -9 -10 -20 -10 -11
-16 -23 -12 -26 3 -3 -3 -14 -14 -25 -10 -10 -19 -26 -19 -34 0 -8 -4 -15 -8
-15 -5 0 -15 -18 -22 -40 -7 -22 -17 -40 -22 -40 -5 0 -6 -4 -3 -10 3 -5 1
-10 -4 -10 -6 0 -11 -8 -11 -17 0 -10 -7 -27 -15 -37 -8 -10 -12 -23 -9 -27 3
-5 1 -9 -5 -9 -6 0 -7 -7 -4 -17 4 -10 2 -14 -4 -10 -10 6 -30 -43 -21 -51 2
-2 -5 -8 -15 -13 -9 -6 -15 -14 -12 -20 4 -5 2 -9 -4 -9 -6 0 -8 -7 -5 -15 4
-8 1 -15 -6 -15 -6 0 -9 -4 -6 -9 3 -5 -1 -11 -9 -15 -8 -3 -12 -12 -9 -20 3
-8 0 -17 -5 -21 -6 -3 -9 -11 -6 -16 4 -5 1 -9 -5 -9 -6 0 -9 -4 -5 -9 3 -5
-1 -15 -8 -23 -8 -7 -13 -21 -11 -31 1 -9 -1 -15 -6 -12 -7 4 -24 -40 -18 -47
1 -2 -5 -14 -12 -28 -8 -14 -13 -28 -12 -32 1 -5 -3 -8 -9 -8 -5 0 -8 -4 -4
-9 3 -5 1 -12 -5 -16 -6 -4 -8 -11 -5 -16 4 -5 1 -9 -5 -9 -6 0 -9 -4 -5 -9 3
-5 1 -12 -4 -16 -6 -3 -7 -13 -4 -22 4 -11 3 -14 -5 -9 -8 5 -12 -1 -12 -18 0
-14 -4 -26 -10 -26 -5 0 -7 -7 -4 -15 4 -8 1 -15 -6 -15 -6 0 -8 -4 -5 -10 3
-5 1 -10 -6 -10 -7 0 -9 -3 -6 -7 4 -3 2 -12 -4 -20 -9 -10 -8 -13 2 -13 11
-1 10 -4 -2 -13 -9 -7 -15 -20 -13 -29 1 -10 -1 -18 -6 -18 -10 0 -26 -49 -32
-97 -1 -7 -5 -13 -10 -13 -4 0 -8 -9 -8 -19 0 -11 -5 -23 -10 -26 -6 -3 -8
-17 -6 -31 3 -13 1 -22 -4 -19 -4 3 -11 -12 -15 -33 -4 -20 -12 -40 -18 -44
-9 -6 -8 -11 3 -17 12 -9 12 -11 -2 -16 -9 -4 -14 -13 -11 -21 3 -8 0 -14 -6
-14 -6 0 -8 -7 -5 -15 4 -8 2 -15 -2 -15 -5 0 -10 -15 -11 -32 -2 -18 -7 -34
-13 -36 -8 -3 -8 -8 0 -17 7 -9 6 -16 -5 -25 -8 -7 -12 -16 -9 -21 3 -5 -1 -9
-8 -9 -9 0 -9 -3 2 -10 12 -7 12 -10 1 -10 -8 0 -11 -6 -7 -17 4 -9 2 -19 -4
-23 -5 -3 -11 -18 -12 -33 -1 -15 -7 -27 -12 -27 -5 0 -6 -3 -3 -7 4 -3 1 -13
-6 -21 -9 -13 -9 -14 1 -8 6 4 12 2 12 -3 0 -6 -5 -11 -10 -11 -6 0 -10 -6 -9
-13 3 -17 -12 -70 -25 -86 -9 -12 -8 -13 3 -6 11 6 12 5 5 -6 -4 -8 -9 -24
-10 -36 0 -12 -7 -29 -14 -38 -12 -14 -11 -18 0 -25 12 -8 12 -10 -1 -15 -10
-4 -14 -16 -13 -35 1 -17 -2 -32 -6 -35 -5 -3 -7 -21 -5 -40 2 -22 -1 -33 -7
-28 -7 4 -9 -4 -6 -21 3 -14 2 -26 -2 -26 -4 0 -10 -9 -13 -20 -3 -12 -1 -18
5 -14 6 4 6 -1 -1 -13 -6 -11 -7 -23 -4 -27 3 -3 1 -6 -7 -6 -9 0 -10 -3 -1
-13 7 -9 7 -17 1 -23 -6 -6 -11 -31 -13 -57 -1 -26 -5 -47 -9 -47 -3 0 -5 -8
-4 -17 2 -10 -2 -22 -8 -26 -8 -6 -7 -10 2 -14 6 -2 12 -9 12 -14 0 -6 -5 -7
-12 -3 -8 5 -9 0 -6 -14 4 -12 1 -22 -4 -22 -7 0 -6 -5 1 -14 7 -8 8 -17 3
-20 -5 -3 -12 -15 -15 -26 -3 -11 -1 -18 4 -14 5 3 9 0 9 -5 0 -6 -5 -11 -11
-11 -6 0 -9 -6 -6 -12 2 -7 0 -21 -5 -30 -6 -12 -5 -18 2 -18 7 0 7 -6 0 -21
-7 -11 -9 -27 -6 -34 3 -8 0 -16 -7 -19 -8 -3 -8 -5 1 -5 10 -1 9 -5 -3 -17
-9 -10 -13 -20 -8 -23 10 -7 9 -39 -3 -66 -4 -11 -8 -45 -7 -75 1 -30 -3 -61
-9 -67 -6 -7 -6 -13 -1 -13 5 0 9 -9 9 -20 0 -11 -3 -20 -6 -20 -3 0 -6 -9 -6
-20 0 -11 4 -20 8 -20 5 0 4 -8 -1 -18 -5 -9 -9 -61 -9 -115 0 -54 -5 -104
-11 -110 -6 -8 -6 -18 -1 -27 5 -9 5 -19 -2 -27 -7 -9 -7 -13 2 -13 8 0 9 -4
4 -12 -11 -16 -11 -39 -1 -55 5 -8 3 -13 -4 -13 -8 0 -8 -4 1 -15 10 -12 10
-15 0 -15 -10 0 -10 -3 0 -15 10 -12 10 -15 0 -15 -10 0 -10 -3 0 -15 10 -12
10 -15 0 -15 -10 0 -10 -3 0 -15 10 -12 10 -15 0 -15 -10 0 -10 -3 0 -15 10
-12 10 -15 0 -15 -10 0 -10 -3 0 -15 10 -12 10 -15 0 -15 -10 0 -10 -3 0 -15
10 -12 10 -15 0 -15 -10 0 -10 -3 0 -15 10 -12 10 -15 0 -15 -10 0 -10 -3 0
-15 10 -12 10 -15 0 -15 -10 0 -10 -3 -1 -14 9 -11 9 -15 -1 -19 -10 -4 -10
-6 1 -6 11 -1 11 -4 1 -16 -10 -12 -10 -15 0 -15 10 0 10 -3 0 -15 -10 -12
-10 -15 0 -15 10 0 10 -3 0 -15 -10 -12 -10 -15 0 -15 10 0 10 -3 0 -15 -10
-12 -10 -15 0 -15 10 0 10 -3 0 -15 -10 -12 -10 -15 0 -15 10 0 10 -3 0 -15
-7 -9 -8 -15 -2 -15 6 0 9 -8 7 -17 -1 -10 2 -24 8 -30 6 -9 6 -13 -2 -13 -7
0 -10 -4 -7 -8 3 -5 6 -41 7 -80 1 -40 6 -72 11 -72 5 0 6 -6 2 -12 -11 -18
-12 -48 -2 -48 5 0 4 -9 -2 -20 -8 -15 -8 -20 2 -20 9 0 9 -3 -2 -10 -9 -6
-10 -10 -3 -10 8 0 11 -19 10 -60 -1 -33 2 -61 7 -63 5 -2 10 -11 12 -20 1 -9
-1 -15 -5 -13 -10 6 -6 -22 6 -54 7 -18 7 -27 -1 -32 -8 -5 -8 -10 1 -19 6 -6
9 -18 6 -25 -3 -8 0 -14 6 -14 9 0 9 -5 1 -20 -8 -15 -8 -20 1 -20 7 0 9 -3 6
-7 -4 -3 -2 -12 4 -20 8 -9 8 -13 1 -13 -11 0 -10 -9 5 -48 10 -26 10 -36 1
-49 -5 -6 -5 -14 2 -18 5 -3 10 -24 10 -46 0 -22 5 -39 11 -39 8 0 8 -4 0 -13
-8 -10 -7 -17 1 -25 7 -7 8 -12 3 -12 -6 0 -3 -5 5 -10 11 -7 11 -10 2 -10
-10 0 -10 -5 -2 -20 6 -11 7 -20 3 -20 -4 0 -1 -5 7 -11 11 -8 12 -12 2 -16
-6 -2 -9 -10 -5 -16 4 -7 8 -18 10 -26 1 -8 5 -26 9 -40 4 -14 6 -30 5 -35 -1
-4 4 -15 11 -24 10 -12 10 -14 1 -8 -16 9 -17 -6 -1 -22 7 -7 8 -12 3 -12 -6
0 -3 -5 5 -10 12 -8 12 -10 1 -10 -11 0 -11 -3 -1 -15 7 -8 10 -24 7 -35 -3
-11 -2 -18 3 -15 4 3 10 -4 13 -15 3 -11 1 -20 -4 -20 -5 0 -4 -10 2 -22 26
-49 27 -56 16 -67 -7 -7 -8 -11 0 -11 6 0 13 -19 17 -42 4 -23 12 -49 19 -57
9 -12 9 -13 0 -7 -7 4 -13 2 -13 -3 0 -6 5 -11 11 -11 5 0 7 -4 4 -10 -3 -5 0
-10 7 -10 9 0 9 -3 -2 -10 -11 -7 -11 -10 -2 -10 7 0 11 -4 7 -9 -3 -5 0 -13
6 -16 5 -4 8 -13 5 -21 -3 -8 -1 -14 5 -14 6 0 8 -4 4 -9 -3 -5 0 -13 6 -17 8
-4 7 -9 -2 -15 -11 -7 -11 -9 -1 -9 7 0 10 -4 7 -10 -3 -5 -2 -10 2 -10 5 0 9
-8 10 -17 3 -36 8 -58 15 -63 4 -3 9 -23 11 -45 2 -21 9 -41 15 -43 6 -2 8
-10 5 -18 -3 -8 0 -14 7 -14 10 0 10 -3 1 -14 -8 -10 -9 -16 -2 -21 6 -3 16
-15 22 -27 9 -16 8 -19 -3 -13 -10 6 -11 5 0 -6 6 -7 12 -21 12 -31 0 -10 5
-18 10 -18 6 0 10 -13 10 -29 0 -17 5 -33 11 -36 6 -4 8 -13 5 -21 -3 -8 -1
-14 5 -14 6 0 7 -4 4 -10 -3 -5 -1 -10 4 -10 6 0 11 -5 11 -11 0 -5 -6 -7 -12
-3 -7 4 -5 -2 5 -13 9 -11 14 -23 10 -26 -3 -4 -1 -7 6 -7 7 0 9 -4 6 -10 -3
-6 -2 -10 4 -10 5 0 8 -9 6 -20 -2 -11 0 -20 5 -20 4 0 11 -7 14 -16 4 -10 2
-13 -6 -8 -7 4 -1 -10 12 -32 14 -21 24 -41 22 -44 -5 -11 10 -40 21 -40 7 0
6 -4 -3 -10 -11 -7 -11 -10 -2 -10 7 0 10 -4 7 -10 -3 -6 -1 -10 5 -10 7 0 10
-7 6 -15 -3 -8 -1 -15 4 -15 6 0 10 -9 10 -19 0 -11 5 -23 10 -26 6 -3 10 -15
10 -26 0 -10 4 -19 9 -19 8 0 25 -56 22 -72 0 -5 4 -8 10 -8 5 0 7 -4 4 -10
-3 -5 -1 -10 4 -10 6 0 11 -9 11 -19 0 -11 5 -23 10 -26 6 -3 10 -15 10 -26 0
-11 5 -17 10 -14 6 3 10 -2 10 -12 0 -11 6 -25 13 -32 10 -11 9 -12 -3 -6 -11
6 -10 3 3 -12 9 -11 14 -23 10 -26 -3 -4 -2 -7 4 -7 6 0 17 -20 24 -45 7 -25
17 -45 21 -45 4 0 8 -7 8 -15 0 -8 4 -15 10 -15 5 0 6 -7 3 -17 -4 -11 -3 -14
5 -9 8 5 10 2 6 -8 -3 -9 -1 -16 5 -16 6 0 11 -9 11 -21 0 -13 4 -18 12 -13 7
5 9 2 5 -9 -3 -8 1 -21 9 -27 8 -7 14 -21 14 -31 0 -11 5 -19 10 -19 6 0 10
-7 10 -15 0 -8 5 -15 12 -15 6 0 8 -3 5 -7 -4 -3 1 -15 10 -26 13 -15 14 -19
3 -13 -9 5 -8 2 2 -7 10 -8 15 -17 11 -20 -3 -4 -1 -7 5 -7 7 0 12 -9 12 -20
0 -11 5 -20 10 -20 6 0 10 -9 10 -20 0 -11 5 -20 10 -20 6 0 10 -7 10 -15 0
-8 4 -15 8 -15 7 0 30 -51 31 -66 0 -3 8 -13 18 -22 10 -9 19 -24 21 -32 2 -8
10 -21 19 -28 9 -6 13 -12 8 -12 -4 0 0 -10 11 -22 13 -14 14 -19 4 -14 -9 4
-8 2 3 -7 9 -8 17 -20 17 -26 0 -7 10 -22 22 -33 13 -11 16 -17 8 -13 -8 4 -6
-1 4 -9 11 -9 16 -16 10 -16 -5 0 -2 -5 6 -10 8 -5 15 -14 15 -20 0 -6 6 -14
13 -19 7 -4 14 -17 16 -28 4 -19 21 -44 53 -78 7 -8 13 -18 13 -24 0 -5 6 -16
14 -24 8 -7 23 -30 34 -50 10 -20 22 -34 26 -30 3 3 6 -1 6 -10 0 -9 5 -17 11
-17 5 0 8 -4 4 -9 -3 -6 3 -14 12 -20 10 -6 14 -11 9 -11 -5 0 3 -12 18 -26
14 -15 26 -33 26 -40 0 -8 5 -14 10 -14 6 0 10 -7 10 -15 0 -7 6 -18 13 -22 8
-4 17 -16 20 -26 4 -11 12 -15 18 -11 7 4 9 3 6 -3 -4 -6 4 -22 18 -37 13 -14
21 -26 17 -26 -4 0 1 -5 11 -11 9 -5 17 -17 17 -24 0 -8 5 -15 10 -15 6 0 10
-6 10 -13 0 -7 10 -23 23 -34 31 -28 57 -61 57 -73 0 -6 7 -10 15 -10 8 0 15
-9 15 -20 0 -12 7 -20 17 -20 9 0 14 -3 10 -6 -8 -8 25 -44 35 -38 4 3 5 -1 3
-8 -3 -7 10 -28 30 -46 19 -19 35 -40 35 -48 0 -8 7 -14 16 -14 8 0 12 -5 9
-10 -3 -6 1 -10 10 -10 9 0 14 -4 11 -9 -3 -5 1 -11 9 -15 8 -3 15 -12 15 -21
0 -8 6 -15 13 -15 6 0 23 -16 36 -35 13 -19 27 -35 32 -35 5 0 9 -6 9 -14 0
-8 9 -18 20 -21 11 -3 20 -13 20 -21 0 -8 7 -14 17 -14 9 0 13 -3 10 -7 -9 -9
13 -34 24 -27 5 3 6 -1 4 -9 -3 -7 5 -19 19 -27 14 -7 28 -21 31 -31 4 -10 12
-18 18 -16 7 1 11 -4 10 -11 -2 -6 4 -12 12 -12 8 0 15 -7 15 -16 0 -8 5 -12
10 -9 6 3 10 -1 10 -10 0 -9 3 -14 8 -12 4 2 15 -4 24 -15 10 -10 16 -18 13
-18 -2 0 6 -10 18 -23 12 -13 24 -23 27 -22 8 3 39 -33 33 -38 -2 -3 5 -8 16
-12 12 -3 21 -13 21 -21 0 -8 5 -12 10 -9 6 3 10 -2 10 -11 0 -10 3 -15 6 -11
8 7 34 -17 34 -32 0 -6 3 -10 8 -10 20 3 32 -2 32 -15 0 -8 9 -18 20 -21 11
-3 20 -13 20 -21 0 -8 7 -14 16 -14 8 0 12 -4 9 -10 -3 -5 0 -10 8 -10 8 0 35
-20 60 -45 26 -25 50 -45 56 -45 5 0 13 -9 16 -20 4 -11 11 -18 16 -15 5 4 9
1 9 -4 0 -6 5 -11 11 -11 16 0 39 -26 31 -35 -4 -5 1 -5 11 -2 11 4 17 1 17
-8 0 -8 4 -15 9 -15 6 0 27 -16 48 -35 21 -20 50 -43 66 -53 15 -9 27 -20 27
-24 0 -4 6 -8 14 -8 8 0 17 -7 20 -16 4 -9 9 -14 12 -11 3 3 22 -10 41 -29 19
-19 39 -32 44 -28 6 3 13 -3 16 -15 3 -12 10 -21 17 -21 11 0 116 -75 150
-107 13 -12 17 -13 12 -3 -4 8 0 6 8 -4 9 -11 16 -16 16 -11 0 5 7 -1 16 -13
8 -12 22 -22 30 -22 8 0 14 -4 14 -10 0 -5 3 -9 8 -7 4 1 18 -8 31 -20 13 -12
29 -20 34 -16 6 3 7 1 3 -5 -3 -6 -2 -13 4 -17 5 -3 10 -2 10 4 0 6 11 0 24
-12 36 -33 60 -52 61 -49 0 7 65 -33 65 -40 0 -5 7 -8 15 -8 9 0 28 -11 42
-24 15 -14 33 -22 42 -19 9 4 13 2 9 -2 -8 -8 15 -25 65 -47 15 -7 27 -16 27
-21 0 -4 4 -5 10 -2 5 3 10 1 10 -5 0 -6 5 -8 10 -5 6 3 10 2 10 -3 0 -6 18
-17 40 -26 22 -9 40 -21 40 -28 0 -6 3 -8 7 -5 3 4 15 -1 26 -10 15 -13 19
-14 13 -3 -7 13 -6 13 6 0 7 -8 36 -26 63 -40 28 -14 52 -28 53 -32 2 -5 15
-8 28 -8 13 0 24 -4 24 -8 0 -5 22 -19 50 -32 27 -13 50 -28 50 -33 0 -6 3 -8
6 -4 3 3 26 -5 50 -18 24 -13 42 -18 38 -12 -3 7 1 4 9 -5 8 -10 17 -15 20
-11 4 3 7 1 7 -5 0 -7 6 -12 14 -12 8 0 31 -9 50 -21 19 -11 40 -18 46 -14 5
3 13 -1 16 -9 3 -9 15 -16 25 -16 10 0 19 -5 19 -11 0 -5 5 -7 10 -4 6 3 10 1
10 -5 0 -6 4 -9 9 -5 5 3 12 1 16 -5 4 -6 10 -8 15 -5 5 3 15 -1 23 -10 8 -8
27 -16 43 -19 15 -3 31 -11 35 -17 7 -11 18 -15 67 -21 6 -1 12 -5 12 -10 0
-5 5 -6 10 -3 6 3 10 1 10 -4 0 -6 3 -10 8 -9 4 1 17 -3 30 -10 12 -7 27 -10
32 -7 6 3 10 1 10 -5 0 -6 4 -9 9 -5 5 3 12 1 16 -5 4 -6 11 -8 16 -5 5 4 9 1
9 -4 0 -6 9 -11 20 -11 11 0 20 -4 20 -10 0 -5 7 -7 15 -4 8 4 15 1 15 -5 0
-6 5 -11 11 -11 5 0 7 6 4 13 -4 6 1 3 10 -8 9 -11 23 -19 31 -17 9 2 27 -4
41 -13 13 -9 31 -14 38 -11 7 2 19 -2 25 -9 7 -8 15 -14 18 -13 4 1 15 -2 25
-7 10 -4 21 -5 24 -1 3 3 12 -2 20 -12 9 -10 11 -11 7 -2 -7 13 -5 13 9 2 9
-8 21 -11 27 -7 5 3 10 1 10 -5 0 -6 4 -8 10 -5 6 3 10 2 10 -4 0 -6 6 -8 14
-5 8 3 17 1 20 -5 4 -6 13 -8 21 -4 8 3 15 0 15 -6 0 -6 11 -11 24 -11 14 0
28 -5 31 -11 4 -6 13 -8 21 -5 8 3 14 1 14 -5 0 -6 5 -7 11 -3 6 3 15 0 20 -7
7 -12 9 -12 9 0 0 11 4 10 16 -5 8 -10 12 -12 8 -4 -7 13 -6 13 11 0 10 -8 21
-14 24 -13 8 3 53 -8 66 -16 12 -7 28 -10 74 -15 18 -2 37 -10 42 -17 7 -12 9
-12 9 0 0 11 4 10 16 -5 8 -10 13 -13 9 -6 -4 7 0 12 9 12 9 0 16 -4 16 -10 0
-5 14 -10 30 -10 17 0 30 -5 30 -12 0 -9 3 -9 11 -1 9 9 17 8 33 -2 11 -7 29
-11 39 -10 9 2 17 -1 17 -6 0 -6 5 -7 10 -4 6 3 10 0 10 -7 0 -10 2 -10 9 1 6
10 10 10 16 1 4 -6 13 -9 21 -6 8 3 14 1 14 -5 0 -6 5 -7 11 -3 6 3 15 0 20
-7 7 -12 9 -12 9 0 0 11 3 11 15 1 8 -6 19 -9 25 -5 5 3 10 1 10 -5 0 -7 6 -8
19 0 14 7 20 7 23 -1 2 -6 20 -12 41 -12 20 -1 37 -4 37 -7 0 -3 17 -6 37 -8
20 -1 42 -7 50 -13 10 -9 17 -8 28 1 11 9 15 9 15 1 0 -7 4 -10 9 -7 5 4 12 0
14 -6 4 -10 6 -10 6 0 1 9 6 10 19 4 9 -5 25 -8 35 -7 9 2 17 0 17 -5 0 -4 8
-6 19 -3 10 3 22 0 25 -6 5 -8 13 -8 28 0 15 8 19 8 14 0 -4 -6 -2 -11 3 -11
6 0 11 6 11 13 1 7 6 5 14 -6 11 -14 15 -15 19 -5 4 10 6 10 6 0 1 -10 6 -10
22 -1 17 8 20 8 14 -1 -5 -8 -3 -11 6 -8 8 3 22 1 32 -4 11 -6 17 -5 17 3 0 8
4 9 13 0 8 -6 23 -9 35 -6 13 2 22 -1 22 -8 0 -7 4 -6 10 3 5 8 10 10 10 3 0
-6 8 -10 18 -8 9 1 25 -2 35 -7 12 -6 17 -5 17 4 0 9 3 9 10 -2 8 -12 10 -12
10 -1 0 11 3 11 15 1 8 -7 15 -9 15 -5 0 4 7 2 15 -5 12 -10 15 -10 15 0 0 10
3 10 15 0 12 -10 15 -10 15 0 0 9 4 9 17 -1 13 -11 15 -11 9 -1 -6 10 0 9 23
-2 19 -10 31 -12 31 -6 0 6 4 9 8 6 5 -3 36 -6 70 -7 34 -1 62 -7 62 -12 0 -5
8 -3 17 4 11 10 14 10 9 2 -4 -7 -2 -13 3 -13 6 0 11 4 11 9 0 6 12 6 30 1 17
-5 30 -5 30 0 0 11 33 7 42 -4 4 -6 12 -5 21 2 12 10 16 10 20 0 3 -10 52 -13
213 -12 115 1 234 3 265 4 30 2 60 0 66 -3 6 -4 14 1 17 10 6 14 9 15 15 4 7
-10 13 -11 30 -2 16 9 21 9 21 0 0 -8 4 -8 15 1 11 9 15 9 15 1 0 -9 5 -9 20
-1 11 6 20 7 20 2 0 -5 7 -9 15 -9 8 0 12 4 9 9 -3 4 0 8 5 8 6 0 11 -5 11
-10 0 -7 7 -7 21 1 12 6 34 9 50 7 16 -3 29 -1 29 4 0 4 5 8 11 8 5 0 8 -4 5
-8 -8 -13 38 -8 52 5 9 9 19 10 31 3 12 -6 22 -5 29 2 9 9 12 9 12 -1 0 -9 4
-10 13 -4 6 6 20 9 30 8 9 -2 17 0 17 5 0 8 43 5 59 -5 6 -3 11 -2 11 4 0 6 7
7 17 4 10 -4 14 -2 10 4 -3 5 0 10 8 10 8 0 15 -3 15 -6 0 -3 11 -6 24 -6 13
0 22 4 18 9 -3 5 5 7 16 4 12 -4 22 -2 22 3 0 6 6 7 17 1 12 -7 24 -5 40 5 17
11 23 12 23 3 0 -9 4 -9 17 1 15 12 16 12 8 -1 -7 -12 -6 -13 6 -3 9 7 41 14
72 15 31 2 57 7 57 12 0 4 9 6 20 3 10 -3 21 0 24 7 3 7 8 6 15 -4 8 -11 11
-12 11 -2 0 7 4 11 9 8 5 -4 12 0 14 6 4 10 6 10 6 0 1 -10 5 -10 22 1 11 8
29 13 39 10 10 -3 27 0 39 6 16 9 21 9 21 0 0 -8 4 -8 13 -1 6 5 26 12 42 13
17 2 33 8 37 14 5 6 8 5 8 -3 0 -9 5 -10 19 -3 10 6 21 7 25 4 3 -3 6 0 6 8 0
11 2 11 10 -1 7 -11 10 -11 10 -2 0 7 5 10 10 7 6 -3 10 0 10 7 0 10 2 10 9
-1 6 -9 11 -10 15 -2 4 6 12 9 17 6 5 -4 9 -1 9 5 0 6 5 8 10 5 6 -4 18 -1 27
7 14 11 16 11 8 -2 -8 -13 -7 -13 8 -1 9 7 17 11 17 7 0 -3 16 0 35 8 26 11
35 12 35 3 0 -8 3 -7 9 2 5 7 14 10 20 7 6 -4 11 -3 11 1 0 8 17 12 63 13 9 1
15 4 13 8 -3 4 4 9 15 10 43 4 49 6 49 14 0 5 5 6 10 3 6 -4 18 -1 27 7 12 9
15 10 9 0 -6 -10 -2 -10 21 0 15 6 34 17 42 22 11 8 13 8 8 -1 -5 -7 0 -9 13
-6 11 3 17 9 15 14 -3 4 8 6 25 4 16 -2 30 1 30 6 0 6 5 7 10 4 6 -3 10 -2 10
3 0 5 21 13 48 17 26 4 52 10 57 14 19 13 85 32 94 27 5 -3 14 1 21 9 7 8 17
12 22 9 5 -3 16 2 23 12 11 14 14 15 15 4 0 -11 3 -11 12 -2 7 7 20 12 31 12
11 0 15 4 11 12 -4 7 -3 8 5 4 6 -4 25 0 42 8 17 9 35 13 40 10 5 -3 9 0 9 6
0 6 5 8 10 5 6 -3 10 -2 10 2 0 5 10 9 22 10 11 1 24 7 28 13 4 7 10 11 14 10
4 -1 17 1 29 5 12 4 25 7 30 6 4 -1 7 3 7 9 0 5 7 7 15 4 8 -4 15 -1 15 5 0 6
8 11 18 11 10 0 23 5 30 12 9 9 12 9 12 -2 0 -9 7 -6 21 8 11 12 24 20 30 17
5 -4 9 -1 9 5 0 6 5 8 10 5 6 -4 17 -2 24 5 8 6 25 13 37 15 13 3 25 9 27 15
2 6 8 8 13 4 5 -3 9 -1 9 5 0 6 7 7 17 4 12 -5 14 -3 8 7 -6 10 -4 12 8 7 10
-3 17 -2 17 4 0 6 5 7 10 4 6 -3 10 -1 10 5 0 6 4 9 9 5 5 -3 12 -1 16 5 4 6
11 8 16 5 5 -4 9 -1 9 5 0 6 4 9 9 5 6 -3 14 3 20 12 6 10 11 14 11 9 0 -5 7
-3 15 4 8 7 15 10 15 6 0 -4 10 0 23 9 13 8 27 12 30 8 4 -3 7 -1 7 6 0 7 5 9
10 6 6 -3 10 -1 10 4 0 6 9 11 20 11 11 0 20 5 20 10 0 6 9 10 20 10 11 0 20
3 20 8 0 4 11 12 25 19 19 8 24 8 19 0 -3 -7 1 -4 9 6 8 9 19 17 26 17 6 0 11
5 11 11 0 5 5 7 10 4 6 -3 24 3 40 15 17 12 30 19 30 15 0 -3 10 3 22 14 11
11 25 18 30 15 4 -3 8 0 8 6 0 6 5 8 10 5 6 -3 10 -1 10 4 0 6 9 11 20 11 11
0 20 4 20 10 0 5 11 12 25 16 14 3 23 9 21 13 -3 4 5 8 16 8 12 1 24 6 27 11
6 9 29 19 45 20 5 0 13 7 18 16 5 9 13 14 17 12 4 -3 20 6 35 19 16 14 32 22
36 20 4 -3 11 2 14 11 3 8 10 12 16 9 5 -3 10 -1 10 4 0 6 7 11 15 11 8 0 15
5 15 10 0 6 6 10 14 10 7 0 19 7 26 15 7 8 16 12 21 9 5 -3 9 0 9 5 0 6 6 11
14 11 8 0 17 7 20 16 3 8 10 12 16 9 5 -3 10 -1 10 5 0 6 5 8 10 5 6 -3 10 1
10 9 0 10 6 13 15 10 8 -4 15 -2 15 3 0 11 62 48 75 44 5 -1 7 1 3 5 -8 7 51
50 65 46 4 -1 7 5 7 14 0 8 5 12 10 9 6 -3 10 -1 10 5 0 6 4 9 9 5 5 -3 16 4
24 15 7 11 17 17 20 13 4 -3 7 -2 7 4 0 6 14 16 30 22 16 5 30 16 30 24 0 8 9
17 20 20 29 7 31 9 62 39 15 14 36 29 48 33 11 3 18 11 15 16 -6 8 8 13 28 10
4 0 7 6 7 14 0 8 6 15 13 15 7 0 30 16 52 35 22 20 52 43 68 52 15 10 27 21
27 25 0 4 6 8 14 8 8 0 16 7 20 15 3 8 17 20 31 27 13 6 27 19 31 30 3 10 10
16 15 13 5 -4 9 -1 9 5 0 6 5 8 10 5 6 -3 10 1 10 9 0 9 5 16 11 16 7 0 27 15
45 34 18 19 35 32 38 29 2 -3 9 5 16 16 6 12 14 20 18 18 9 -4 52 40 45 47 -3
3 5 10 18 15 13 5 50 36 82 70 31 34 57 58 57 55 0 -4 8 3 19 14 10 12 21 19
24 16 3 -3 8 4 12 15 3 12 11 19 16 16 5 -4 9 -2 9 3 0 13 69 82 82 82 5 0 6
5 3 10 -3 6 -2 10 2 10 5 0 18 7 29 16 10 8 13 12 5 8 -9 -5 -12 -3 -7 4 4 7
14 12 22 12 8 0 12 5 9 10 -3 6 -1 10 4 10 6 0 21 16 33 35 13 19 31 37 40 41
10 3 17 9 15 14 -1 5 12 19 29 32 17 13 31 25 31 28 -1 13 29 50 41 50 7 0 10
5 7 10 -3 6 1 10 10 10 9 0 13 5 10 10 -3 6 1 13 9 16 9 3 16 13 16 21 0 8 5
11 10 8 6 -3 10 1 10 9 0 8 9 18 20 21 11 4 18 10 15 15 -3 5 -1 11 5 15 6 4
8 11 4 16 -3 5 0 8 7 7 7 -2 22 11 34 29 12 18 25 30 28 27 2 -3 11 9 18 25 8
17 20 31 27 31 7 0 11 4 8 9 -3 5 1 12 10 15 9 4 15 9 12 12 -3 3 11 22 31 42
20 21 37 45 39 52 2 8 16 26 31 40 15 14 25 32 23 39 -3 8 0 11 5 8 6 -4 18 9
29 28 10 18 22 31 28 28 5 -4 7 1 3 10 -4 11 1 18 14 22 10 4 17 11 14 16 -4
5 1 12 9 15 9 3 13 10 10 15 -3 5 0 9 7 9 7 0 9 3 6 7 -4 3 4 16 18 28 13 13
21 26 18 29 -4 3 -1 6 6 6 7 0 10 4 7 9 -3 5 1 12 10 15 9 4 14 9 11 12 -5 5
10 27 41 60 7 8 11 14 7 14 -4 0 0 7 8 15 8 8 25 31 38 52 13 21 28 41 33 45
6 4 7 8 3 8 -5 0 5 17 22 37 16 20 28 40 25 45 -3 4 0 8 6 8 6 0 16 13 21 30
6 16 15 30 20 30 5 0 9 6 9 14 0 7 7 19 15 26 9 7 14 19 11 27 -3 8 -2 12 3 9
5 -3 14 8 21 24 7 16 17 27 23 23 6 -4 8 0 4 10 -3 10 -2 17 4 17 6 0 7 5 4
10 -3 6 -2 10 4 10 10 0 27 39 23 53 -1 5 2 6 7 2 6 -3 13 6 17 20 3 14 10 25
16 25 5 0 6 5 3 10 -3 6 -1 10 5 10 6 0 9 4 6 9 -3 5 1 12 10 15 8 3 12 10 9
16 -3 5 -1 10 5 10 6 0 8 5 5 10 -3 6 -1 10 5 10 6 0 9 4 6 9 -3 5 1 14 9 21
8 7 12 16 10 21 -3 4 2 12 11 17 9 5 15 13 15 18 -2 19 11 44 21 44 6 0 8 3 5
6 -4 4 2 19 12 33 24 35 35 63 32 81 -2 8 1 11 5 7 9 -9 46 62 38 74 -3 5 -1
9 5 9 5 0 12 13 16 30 4 16 10 30 13 30 4 0 12 11 19 25 8 18 8 23 0 18 -7 -4
-2 5 9 19 11 14 26 44 34 67 7 22 17 41 22 41 5 0 7 4 3 9 -3 5 -1 12 5 16 6
4 8 11 5 16 -4 5 -1 9 5 9 6 0 8 5 5 10 -3 6 -1 10 5 10 6 0 9 4 6 8 -3 5 4
23 15 41 11 18 14 29 7 25 -10 -6 -10 -4 0 9 8 9 11 21 7 27 -4 6 -1 9 7 8 7
-2 12 5 12 15 -1 9 3 17 8 17 6 0 8 9 5 20 -3 11 -1 18 4 14 5 -3 9 -2 10 3 2
27 9 47 17 52 5 3 8 14 6 23 -1 10 2 18 8 18 6 0 7 7 4 16 -3 8 -2 13 3 10 5
-3 12 10 15 30 4 19 15 50 25 67 10 18 18 40 19 50 4 42 6 47 14 47 5 0 6 5 3
10 -3 6 1 13 9 16 9 3 16 10 16 16 0 5 -5 6 -12 2 -6 -4 -1 10 12 31 14 22 18
35 9 30 -11 -7 -12 -6 -2 7 7 8 10 18 6 21 -3 4 -2 7 4 7 5 0 10 6 11 13 1 27
12 60 23 73 9 11 8 14 -2 14 -10 0 -11 2 -2 8 6 4 15 21 19 37 4 17 12 33 18
37 7 5 6 8 -4 8 -12 0 -12 2 -2 9 7 4 14 19 16 32 1 13 8 35 16 49 13 24 12
24 -6 10 -18 -14 -18 -14 -1 6 9 11 14 24 10 27 -3 4 -1 7 5 7 6 0 9 9 7 20
-2 11 0 22 6 25 5 4 9 17 9 30 0 13 6 26 13 28 9 4 9 7 -1 15 -10 7 -10 11 2
21 8 7 12 19 9 27 -3 8 0 14 6 14 9 0 9 5 0 21 -9 17 -8 20 2 14 9 -6 11 -3 6
8 -3 10 -3 17 2 17 4 0 8 6 9 13 1 6 4 26 7 42 4 17 7 40 8 52 0 12 4 20 8 17
12 -7 18 23 6 35 -8 8 -8 11 1 11 10 0 10 5 2 20 -8 15 -8 20 1 20 7 0 10 3 6
6 -3 3 3 26 14 50 10 25 14 42 9 39 -5 -3 -2 11 6 31 9 22 11 33 4 29 -7 -4
-5 5 3 22 11 21 12 34 5 47 -8 15 -8 17 2 11 10 -6 12 -2 8 13 -4 12 -2 22 2
22 5 0 7 8 5 18 -1 9 2 23 8 30 6 8 6 12 -2 12 -7 0 -5 10 6 27 10 15 12 24 6
20 -7 -5 -13 -4 -13 2 0 6 5 11 11 11 5 0 8 4 4 9 -3 5 0 13 6 17 8 5 7 9 -2
14 -10 7 -10 12 -1 23 7 7 9 17 5 20 -3 4 -1 7 6 7 9 0 9 5 1 20 -8 14 -8 20
0 20 6 0 8 5 5 10 -3 6 -1 10 5 10 7 0 8 6 1 18 -6 11 -6 24 1 35 5 10 7 25 4
33 -3 8 0 14 7 14 8 0 6 4 -3 10 -12 8 -12 10 -1 10 11 0 11 3 1 15 -9 11 -10
15 -1 15 8 0 10 8 6 21 -4 13 -3 19 2 16 5 -4 10 0 10 8 0 8 -3 15 -7 15 -4 0
-5 11 -2 25 2 14 8 25 14 25 5 0 4 9 -2 20 -8 14 -8 20 0 20 7 0 8 6 0 19 -7
14 -7 22 0 26 6 4 8 11 5 16 -4 5 -1 9 5 9 7 0 8 6 1 19 -6 10 -8 21 -4 24 3
3 7 34 9 69 3 35 7 74 9 88 5 20 3 22 -5 10 -9 -12 -10 -10 -4 10 4 14 7 31 7
38 0 6 5 12 11 12 6 0 4 5 -4 11 -10 7 -11 12 -3 15 8 4 9 14 3 35 -6 19 -5
29 2 29 7 0 6 5 -1 14 -8 10 -9 16 -1 21 7 4 7 12 0 25 -7 13 -6 20 3 24 9 5
9 7 -1 12 -10 5 -10 9 0 22 11 13 11 14 -2 7 -13 -8 -13 -7 -1 9 18 22 20 388
2 409 -8 10 -7 17 2 27 10 10 9 11 -3 5 -13 -8 -13 -7 -1 8 7 10 9 17 3 17
-11 0 -11 18 1 37 4 6 3 14 -2 18 -10 5 -7 36 4 55 3 6 1 10 -4 10 -6 0 -11 5
-11 11 0 5 5 7 11 3 8 -4 8 0 0 15 -7 11 -8 21 -4 21 4 0 1 5 -7 10 -11 7 -11
10 -2 10 7 0 10 5 6 12 -4 6 -6 40 -5 75 2 41 -1 63 -9 63 -6 0 -8 5 -3 13 10
16 10 38 0 60 -5 11 -4 17 5 17 9 0 9 3 2 8 -17 11 -25 42 -11 42 8 0 8 3 -2
9 -8 5 -9 10 -3 12 7 3 6 17 -3 42 -7 20 -9 37 -3 37 5 0 5 8 -1 18 -7 13 -6
23 1 30 9 9 9 12 -1 12 -8 0 -11 6 -7 16 3 8 2 12 -4 9 -6 -3 -10 -1 -10 4 0
6 4 11 9 11 6 0 6 12 1 29 -4 16 -6 32 -2 35 3 3 1 6 -5 6 -5 0 -10 7 -10 15
0 8 5 15 10 15 5 0 4 7 -3 14 -6 8 -11 28 -9 43 1 15 -1 35 -4 43 -3 8 -5 22
-5 30 0 20 -9 58 -17 70 -3 6 0 10 7 10 9 0 9 3 -2 10 -8 5 -11 10 -6 10 5 0
3 7 -4 15 -8 10 -9 15 -2 15 7 0 7 11 -2 33 -7 17 -12 44 -11 60 0 15 -2 27
-5 27 -3 0 -7 14 -8 32 -2 17 -8 38 -15 47 -9 12 -9 13 1 7 6 -4 12 -2 12 3 0
6 -5 11 -11 11 -6 0 -9 6 -6 14 3 7 0 19 -6 26 -9 10 -9 11 1 5 12 -6 12 -3 2
15 -6 12 -9 28 -6 36 3 9 1 12 -4 9 -9 -6 -13 15 -13 67 0 10 -4 15 -10 11 -6
-4 -8 2 -5 15 4 12 2 22 -2 22 -4 0 -6 9 -3 20 3 12 0 20 -8 20 -7 0 -9 3 -6
7 4 3 2 12 -4 20 -9 10 -8 13 1 13 9 0 9 4 -1 17 -8 9 -13 25 -11 36 2 11 -1
17 -6 13 -6 -3 -8 2 -5 13 3 10 0 22 -7 26 -8 5 -7 11 2 23 11 13 11 14 -1 7
-11 -6 -13 -4 -8 8 3 10 2 17 -4 17 -6 0 -9 8 -7 18 2 9 -3 22 -12 29 -12 10
-12 12 -1 13 11 0 11 3 1 15 -6 8 -9 19 -5 25 3 5 1 10 -6 10 -6 0 -10 10 -7
23 2 13 -1 29 -9 35 -7 7 -13 26 -13 42 0 17 -5 30 -12 30 -6 0 -8 3 -5 7 4 3
2 12 -4 20 -9 10 -8 13 1 13 9 0 8 5 -3 18 -10 10 -17 28 -17 40 0 12 -5 22
-11 22 -5 0 -8 4 -5 8 3 5 -6 41 -19 81 -14 40 -25 79 -25 86 0 7 -5 15 -10
17 -6 2 -12 13 -13 26 0 12 -5 22 -9 22 -4 0 -8 5 -8 11 0 5 6 7 13 3 6 -4 4
2 -6 13 -9 11 -14 23 -10 26 3 4 1 7 -6 7 -8 0 -11 7 -7 15 3 9 -1 18 -9 22
-12 4 -13 9 -4 19 9 11 8 15 -5 20 -9 3 -13 10 -10 15 3 5 1 9 -4 9 -5 0 -9 7
-10 15 -1 8 -3 22 -4 30 -1 8 -5 15 -10 15 -4 0 -8 9 -8 20 0 11 -4 20 -8 20
-4 0 -9 12 -10 26 -1 15 -10 33 -20 40 -11 9 -13 13 -4 14 9 0 7 8 -7 29 -11
15 -18 31 -14 35 3 3 1 6 -5 6 -6 0 -9 7 -6 15 4 8 1 15 -6 15 -6 0 -8 5 -5
10 3 6 1 10 -5 10 -6 0 -8 5 -5 10 3 6 2 10 -4 10 -6 0 -8 7 -5 15 4 8 1 15
-5 15 -6 0 -11 9 -11 20 0 11 -7 23 -16 27 -8 3 -13 12 -10 19 3 7 1 16 -5 19
-5 4 -7 11 -4 16 4 5 1 9 -5 9 -6 0 -8 5 -5 10 3 6 1 10 -5 10 -6 0 -8 5 -5
10 3 6 1 10 -5 10 -6 0 -8 5 -5 10 3 6 1 10 -5 10 -6 0 -8 5 -5 10 3 6 1 10
-5 10 -6 0 -8 5 -5 10 3 6 0 10 -7 10 -11 0 -10 2 0 9 11 7 11 9 -2 14 -9 4
-16 14 -16 23 0 9 -8 23 -17 31 -10 8 -12 11 -5 8 11 -6 12 -3 3 13 -6 12 -16
24 -21 27 -6 3 -10 13 -10 21 0 8 -11 32 -25 54 -14 22 -22 40 -19 40 4 0 -2
8 -13 18 -11 9 -18 23 -16 30 3 6 0 12 -7 12 -6 0 -8 5 -5 10 3 6 1 10 -4 10
-6 0 -11 9 -11 20 0 11 -4 20 -10 20 -5 0 -10 8 -10 18 0 10 -9 24 -19 31 -11
8 -17 20 -14 28 3 7 0 13 -7 13 -6 0 -8 5 -5 10 3 6 1 10 -4 10 -6 0 -11 7
-11 15 0 8 -4 15 -10 15 -5 0 -10 8 -10 18 0 11 -9 27 -19 36 -11 10 -23 31
-26 47 -4 16 -14 33 -23 39 -9 5 -13 10 -8 10 6 0 1 7 -10 16 -10 8 -12 12 -4
8 8 -4 4 5 -9 19 -26 28 -47 62 -57 90 -3 9 -11 17 -16 17 -5 0 -6 5 -3 10 3
6 1 10 -4 10 -6 0 -11 7 -11 15 0 8 -5 15 -11 15 -5 0 -7 5 -4 10 3 6 2 10 -4
10 -6 0 -20 18 -31 40 -11 22 -25 40 -30 40 -6 0 -10 9 -10 19 0 11 -9 23 -20
26 -11 4 -17 11 -14 17 4 6 0 16 -8 22 -8 6 -21 22 -28 35 -14 27 -25 42 -56
76 -12 13 -20 26 -18 28 2 2 -7 16 -21 31 -14 15 -25 31 -25 37 0 5 -5 9 -12
9 -6 0 -9 3 -5 6 3 3 -6 17 -21 31 -15 14 -18 20 -7 13 11 -7 5 1 -12 17 -18
17 -30 33 -26 37 3 3 1 6 -6 6 -7 0 -9 5 -6 10 3 6 -1 10 -9 10 -8 0 -17 8
-21 19 -3 10 -22 36 -43 58 -21 22 -36 45 -34 51 2 7 -4 12 -12 12 -9 0 -20 8
-23 17 -7 18 -33 51 -70 90 -13 13 -23 28 -23 33 0 6 -4 10 -8 10 -5 0 -15 11
-22 25 -7 14 -20 25 -28 25 -9 0 -12 3 -9 7 4 3 -11 24 -33 45 -22 22 -40 44
-40 49 0 5 -10 14 -22 19 -13 5 -17 9 -10 9 10 1 10 4 0 15 -7 8 -16 12 -19
10 -3 -2 -12 8 -19 21 -7 14 -22 25 -32 25 -10 0 -17 3 -17 8 3 19 -2 33 -11
27 -5 -3 -10 1 -10 9 0 8 -9 21 -20 29 -11 8 -18 16 -16 18 2 2 -11 15 -30 29
-18 14 -36 33 -39 43 -4 9 -11 17 -16 17 -15 0 -39 26 -32 34 4 3 -1 6 -11 6
-9 0 -15 4 -12 8 3 5 -6 15 -19 22 -14 7 -27 21 -30 31 -3 9 -15 19 -26 22
-14 4 -18 10 -13 18 5 8 2 11 -7 7 -15 -6 -42 16 -32 26 6 6 -12 10 -29 7 -5
0 -8 8 -8 19 0 11 -4 20 -10 20 -5 0 -29 18 -51 40 -23 22 -43 40 -46 40 -9 0
-33 29 -33 39 0 6 -3 10 -7 9 -13 -4 -53 26 -53 39 0 6 -8 14 -18 17 -10 4
-33 20 -50 37 -18 17 -32 29 -32 25 0 -3 -8 2 -18 12 -11 9 -17 20 -15 25 2 4
-1 7 -8 7 -10 0 -56 34 -100 75 -9 8 -21 15 -27 15 -7 0 -12 4 -12 8 0 5 -12
14 -26 20 -15 7 -22 17 -18 24 4 6 3 8 -3 5 -5 -3 -21 5 -36 19 -15 14 -27 22
-27 19 0 -6 -16 6 -51 38 -10 9 -19 15 -19 11 0 -3 -11 6 -23 20 -13 14 -26
24 -29 21 -2 -2 -20 10 -39 27 -19 18 -38 31 -43 30 -5 -2 -15 6 -23 18 -8 11
-21 20 -29 20 -8 0 -14 5 -14 11 0 5 -4 8 -9 5 -5 -3 -11 1 -15 9 -3 8 -12 15
-21 15 -8 0 -15 5 -15 10 0 6 -5 10 -11 10 -7 0 -18 8 -26 18 -10 11 -12 12
-8 2 6 -13 5 -13 -7 0 -7 8 -25 21 -40 29 -16 8 -28 18 -28 23 0 4 -6 8 -13 8
-7 0 -22 8 -33 18 -11 11 -27 18 -37 16 -9 -1 -15 1 -12 6 3 4 -2 13 -10 20
-8 7 -15 9 -15 4 0 -5 -4 -4 -8 3 -4 6 -14 13 -22 15 -8 2 -23 11 -34 21 -11
9 -26 17 -33 17 -7 0 -13 5 -13 10 0 6 -7 10 -15 10 -8 0 -15 5 -15 12 0 6 -3
8 -7 5 -3 -4 -12 1 -20 11 -9 10 -12 11 -7 2 4 -8 -4 -4 -19 9 -14 12 -30 20
-35 17 -6 -3 -12 1 -16 9 -3 8 -15 15 -26 15 -12 0 -18 5 -15 10 6 9 -8 14
-27 11 -5 0 -8 4 -8 9 0 6 -9 10 -21 10 -11 0 -17 5 -14 10 3 6 -3 10 -14 10
-12 0 -21 5 -21 11 0 5 -4 8 -9 4 -6 -3 -13 1 -18 9 -4 8 -12 15 -18 15 -23 2
-45 13 -45 22 0 6 -4 7 -10 4 -5 -3 -10 -1 -10 5 0 6 -4 8 -10 5 -5 -3 -10 -1
-10 5 0 6 -4 8 -10 5 -5 -3 -10 -1 -10 5 0 6 -4 8 -10 5 -5 -3 -10 -1 -10 5 0
6 -4 8 -10 5 -5 -3 -10 -1 -10 5 0 6 -4 9 -9 6 -5 -3 -14 1 -21 9 -7 8 -21 15
-31 15 -11 0 -19 5 -19 11 0 5 -4 7 -10 4 -5 -3 -10 -1 -10 5 0 6 -4 8 -10 5
-5 -3 -10 -1 -10 5 0 6 -4 8 -10 5 -5 -3 -10 -1 -10 5 0 6 -4 9 -9 6 -5 -4
-11 -1 -13 4 -2 6 -13 12 -26 13 -12 0 -22 5 -22 9 0 4 -11 8 -24 8 -13 0 -27
7 -30 16 -3 8 -10 12 -16 9 -5 -3 -10 -1 -10 5 0 6 -4 9 -9 5 -5 -3 -12 -1
-16 5 -4 6 -11 8 -16 5 -5 -4 -9 -1 -9 6 0 7 -3 9 -7 6 -3 -4 -15 1 -26 10
-15 13 -19 14 -13 3 6 -12 4 -11 -6 1 -7 9 -21 15 -31 13 -9 -1 -15 2 -11 7 4
8 -17 14 -38 10 -5 0 -8 4 -8 11 0 6 -3 9 -6 5 -3 -3 -31 8 -61 24 -30 16 -52
25 -48 19 3 -6 0 -7 -9 -4 -9 3 -16 10 -16 16 0 5 -4 7 -9 3 -5 -3 -12 -1 -16
4 -3 6 -12 8 -20 4 -8 -3 -15 0 -15 6 0 6 -9 11 -21 11 -11 0 -18 3 -16 8 3 4
-9 8 -26 9 -18 2 -33 7 -35 13 -2 5 -15 10 -28 10 -13 0 -24 4 -24 8 0 5 -7 9
-15 10 -8 1 -22 3 -30 4 -8 1 -15 5 -15 8 0 8 -56 24 -77 23 -7 0 -13 3 -13 8
0 4 -9 6 -20 4 -11 -2 -18 0 -15 4 3 5 -2 12 -11 15 -8 3 -12 2 -9 -4 3 -6 -1
-7 -9 -4 -9 3 -16 10 -16 14 0 5 -11 7 -25 6 -15 -2 -22 1 -18 7 4 6 0 8 -10
4 -10 -4 -17 -2 -17 4 0 6 -9 9 -20 6 -13 -3 -18 -1 -13 6 4 6 -2 8 -15 5 -12
-4 -22 -2 -22 4 0 5 -4 6 -10 3 -5 -3 -10 -1 -10 5 0 6 -5 8 -11 4 -6 -3 -21
-2 -32 4 -35 17 -125 41 -131 35 -3 -4 -6 -1 -6 6 0 9 -9 12 -25 9 -13 -3 -22
-2 -20 2 3 4 -4 10 -15 13 -11 3 -17 1 -14 -4 3 -5 -6 -4 -20 3 -14 6 -26 15
-26 20 0 4 -5 8 -11 8 -5 0 -7 -5 -3 -11 5 -8 1 -8 -13 0 -11 6 -23 7 -27 4
-3 -3 -6 -1 -6 5 0 6 -7 9 -17 5 -12 -5 -14 -3 -8 8 7 12 6 12 -7 1 -12 -10
-18 -9 -28 3 -8 10 -16 12 -19 6 -5 -7 -16 -5 -34 4 -19 10 -26 10 -21 2 5 -9
3 -9 -7 1 -7 6 -22 12 -34 12 -12 0 -26 5 -33 12 -7 7 -12 8 -12 4 0 -5 -8 -2
-17 5 -11 10 -14 10 -9 2 9 -17 3 -16 -39 1 -26 11 -35 12 -35 3 0 -9 -2 -9
-8 0 -6 10 -32 17 -98 27 -11 2 -26 6 -32 10 -7 4 -12 1 -12 -6 0 -9 -3 -9
-10 2 -5 8 -10 11 -10 6 0 -5 -7 -3 -15 4 -12 10 -15 10 -15 0 0 -9 -3 -10
-13 -1 -8 6 -17 8 -20 4 -4 -3 -7 0 -7 8 0 11 -2 11 -10 -1 -7 -11 -10 -11
-10 -2 0 7 -5 10 -10 7 -6 -4 -18 -1 -27 7 -12 9 -15 9 -9 1 4 -7 2 -13 -3
-13 -6 0 -11 5 -11 12 0 6 -3 9 -6 5 -3 -3 -17 -2 -30 3 -17 7 -24 6 -24 -2 0
-6 -8 -4 -19 6 -13 12 -21 14 -26 6 -5 -8 -11 -8 -21 1 -11 9 -14 9 -14 -1 0
-9 -7 -7 -20 5 -11 10 -20 13 -20 7 0 -7 -5 -12 -11 -12 -5 0 -8 4 -5 8 3 5
-11 7 -30 6 -19 -2 -34 1 -34 6 0 6 -5 10 -11 10 -5 0 -7 -5 -3 -12 4 -7 3 -8
-4 -4 -16 10 -45 15 -98 17 -24 2 -44 7 -44 12 0 5 -7 4 -15 -3 -12 -10 -15
-10 -15 1 0 10 -3 10 -12 1 -6 -6 -18 -8 -27 -3 -26 13 -99 22 -81 10 12 -8
10 -9 -7 -4 -12 3 -31 8 -42 10 -12 2 -26 7 -31 10 -6 3 -10 2 -10 -2 0 -5 -9
-9 -20 -9 -11 0 -20 4 -20 8 0 4 -12 3 -26 -2 -14 -6 -23 -6 -20 -1 3 5 -1 12
-10 15 -8 3 -12 2 -9 -4 3 -6 1 -10 -4 -10 -6 0 -11 3 -11 8 0 4 -45 6 -100 6
-62 -1 -100 2 -100 8 0 6 -6 5 -15 -2 -8 -7 -15 -8 -15 -3 0 5 -7 10 -15 10
-8 0 -15 -5 -15 -10 0 -5 -6 -4 -14 2 -11 9 -15 9 -19 -1 -4 -10 -6 -10 -6 1
-1 11 -4 11 -16 1 -12 -10 -15 -10 -15 0 0 10 -3 10 -14 1 -11 -9 -15 -9 -19
1 -4 10 -6 10 -6 -1 -1 -11 -4 -11 -16 -1 -10 9 -15 9 -15 1 0 -6 -5 -11 -11
-11 -5 0 -7 6 -3 13 5 8 2 8 -9 -2 -13 -10 -17 -10 -17 -1 0 9 -4 9 -13 2 -8
-7 -18 -7 -27 -2 -9 5 -19 5 -27 -2 -9 -7 -13 -7 -13 2 0 9 -4 9 -13 2 -8 -7
-18 -7 -27 -2 -9 5 -19 5 -27 -2 -9 -7 -13 -7 -13 2 0 9 -4 9 -13 2 -8 -7 -18
-7 -27 -2 -9 5 -19 5 -27 -2 -9 -7 -13 -7 -13 1 0 7 -5 9 -12 4 -17 -10 -52
-10 -59 1 -4 4 -10 3 -13 -3z"/>
</g>
</svg>
